<svg xmlns="http://www.w3.org/2000/svg" xmlns:xlink="http://www.w3.org/1999/xlink" width="1920" zoomAndPan="magnify" viewBox="0 0 1440 809.999993" height="1080" preserveAspectRatio="xMidYMid meet" version="1.0"><defs><g/><clipPath id="1b9e77865d"><rect x="0" width="291" y="0" height="512"/></clipPath><clipPath id="35aab7803d"><path d="M 680 0.839844 L 1033.238281 0.839844 L 1033.238281 561.480469 L 680 561.480469 Z M 680 0.839844 " clip-rule="nonzero"/></clipPath><clipPath id="a5c71816ed"><rect x="0" width="354" y="0" height="562"/></clipPath><clipPath id="f4876201b4"><path d="M 0.28125 0.839844 L 404 0.839844 L 404 561.480469 L 0.28125 561.480469 Z M 0.28125 0.839844 " clip-rule="nonzero"/></clipPath><clipPath id="47d1109f00"><rect x="0" width="404" y="0" height="562"/></clipPath><clipPath id="efaf74bba9"><rect x="0" width="1034" y="0" height="562"/></clipPath></defs><g fill="#93908a" fill-opacity="1"><g transform="translate(1358.999938, 747.999942)"><g><path d="M 6.8125 0.203125 C 5.800781 0.203125 4.894531 -0.0351562 4.09375 -0.515625 C 3.300781 -1.003906 2.664062 -1.796875 2.1875 -2.890625 C 1.707031 -3.984375 1.46875 -5.398438 1.46875 -7.140625 C 1.46875 -8.828125 1.707031 -10.21875 2.1875 -11.3125 C 2.664062 -12.40625 3.316406 -13.207031 4.140625 -13.71875 C 4.960938 -14.226562 5.90625 -14.484375 6.96875 -14.484375 C 8.800781 -14.484375 10.148438 -13.925781 11.015625 -12.8125 L 10.203125 -11.703125 L 9.953125 -11.703125 C 9.242188 -12.554688 8.25 -12.984375 6.96875 -12.984375 C 5.738281 -12.984375 4.796875 -12.515625 4.140625 -11.578125 C 3.492188 -10.640625 3.171875 -9.144531 3.171875 -7.09375 L 3.375 -7.046875 C 3.757812 -7.847656 4.265625 -8.453125 4.890625 -8.859375 C 5.515625 -9.265625 6.285156 -9.46875 7.203125 -9.46875 C 8.109375 -9.46875 8.890625 -9.273438 9.546875 -8.890625 C 10.203125 -8.503906 10.707031 -7.945312 11.0625 -7.21875 C 11.414062 -6.5 11.59375 -5.644531 11.59375 -4.65625 C 11.59375 -3.664062 11.394531 -2.804688 11 -2.078125 C 10.613281 -1.347656 10.0625 -0.785156 9.34375 -0.390625 C 8.625 0.00390625 7.78125 0.203125 6.8125 0.203125 Z M 6.8125 -1.3125 C 7.757812 -1.3125 8.5 -1.597656 9.03125 -2.171875 C 9.5625 -2.742188 9.828125 -3.570312 9.828125 -4.65625 C 9.828125 -5.738281 9.5625 -6.566406 9.03125 -7.140625 C 8.5 -7.710938 7.757812 -8 6.8125 -8 C 6.164062 -8 5.601562 -7.863281 5.125 -7.59375 C 4.65625 -7.332031 4.289062 -6.953125 4.03125 -6.453125 C 3.78125 -5.953125 3.65625 -5.351562 3.65625 -4.65625 C 3.65625 -3.957031 3.78125 -3.351562 4.03125 -2.84375 C 4.289062 -2.34375 4.65625 -1.960938 5.125 -1.703125 C 5.601562 -1.441406 6.164062 -1.3125 6.8125 -1.3125 Z M 6.8125 -1.3125 "/></g></g></g><g transform="matrix(1, 0, 0, 1, 185, 105)"><g clip-path="url(#efaf74bba9)"><g transform="matrix(1, 0, 0, 1, 385, 40)"><g clip-path="url(#1b9e77865d)"><g fill="#ffffff" fill-opacity="1"><g transform="translate(4.620582, 410.237269)"><g><path d="M 122.921875 6.046875 C 101.753906 5.710938 83.109375 -0.328125 66.984375 -12.078125 C 50.867188 -23.835938 38.273438 -38.953125 29.203125 -57.421875 C 20.140625 -75.898438 15.609375 -95.546875 15.609375 -116.359375 C 15.609375 -142.222656 21.234375 -165.566406 32.484375 -186.390625 C 43.742188 -207.210938 59.867188 -223.832031 80.859375 -236.25 C 101.847656 -248.675781 126.945312 -254.890625 156.15625 -254.890625 C 166.90625 -254.890625 176.726562 -253.710938 185.625 -251.359375 C 194.53125 -249.015625 202.675781 -245.992188 210.0625 -242.296875 L 210.0625 -330.96875 C 210.0625 -345.738281 208.296875 -355.472656 204.765625 -360.171875 C 201.242188 -364.878906 196.289062 -368.578125 189.90625 -371.265625 L 189.90625 -378.3125 L 256.40625 -407.53125 L 261.453125 -403.5 L 261.453125 -63.96875 C 261.453125 -45.84375 262.707031 -32.492188 265.21875 -23.921875 C 267.738281 -15.359375 273.195312 -9.734375 281.59375 -7.046875 L 281.59375 0 L 230.21875 0 C 216.78125 0 210.0625 -6.71875 210.0625 -20.15625 L 210.0625 -41.3125 C 203.6875 -33.914062 196.128906 -26.523438 187.390625 -19.140625 C 178.660156 -11.753906 168.921875 -5.625 158.171875 -0.75 C 147.429688 4.113281 135.679688 6.378906 122.921875 6.046875 Z M 64.984375 -157.171875 C 64.984375 -145.078125 66.242188 -131.472656 68.765625 -116.359375 C 71.285156 -101.253906 75.816406 -86.734375 82.359375 -72.796875 C 88.910156 -58.859375 97.976562 -47.269531 109.5625 -38.03125 C 121.144531 -28.800781 136.003906 -24.1875 154.140625 -24.1875 C 165.222656 -24.1875 175.46875 -26.867188 184.875 -32.234375 C 194.28125 -37.609375 202.675781 -44.160156 210.0625 -51.890625 L 210.0625 -163.21875 C 210.0625 -175.644531 206.703125 -188.066406 199.984375 -200.484375 C 193.265625 -212.910156 184.28125 -223.320312 173.03125 -231.71875 C 161.78125 -240.113281 149.101562 -244.3125 135 -244.3125 C 116.53125 -244.3125 102.257812 -239.773438 92.1875 -230.703125 C 82.113281 -221.640625 75.0625 -210.472656 71.03125 -197.203125 C 67 -183.941406 64.984375 -170.597656 64.984375 -157.171875 Z M 64.984375 -157.171875 "/></g></g></g></g></g><g clip-path="url(#35aab7803d)"><g transform="matrix(1, 0, 0, 1, 680, 0.000000000000042633)"><g clip-path="url(#a5c71816ed)"><g fill="#ffffff" fill-opacity="1"><g transform="translate(4.629931, 447.974456)"><g><path d="M 26.4375 0 L 26.4375 -7.875 C 35.8125 -10.875 41.90625 -17.15625 44.71875 -26.71875 C 47.53125 -36.28125 48.9375 -51.1875 48.9375 -71.4375 L 48.9375 -322.296875 C 48.9375 -342.546875 47.53125 -357.453125 44.71875 -367.015625 C 41.90625 -376.578125 35.8125 -382.859375 26.4375 -385.859375 L 26.4375 -393.734375 L 165.375 -393.734375 C 211.5 -393.734375 244.023438 -387.078125 262.953125 -373.765625 C 281.890625 -360.453125 291.359375 -342.359375 291.359375 -319.484375 C 291.359375 -300.359375 284.421875 -282.921875 270.546875 -267.171875 C 256.679688 -251.429688 231.9375 -240.375 196.3125 -234 C 242.8125 -232.5 277.773438 -222.1875 301.203125 -203.0625 C 324.640625 -183.9375 336.546875 -160.3125 336.921875 -132.1875 C 337.296875 -115.6875 334.109375 -99.5625 327.359375 -83.8125 C 320.609375 -68.0625 309.828125 -53.90625 295.015625 -41.34375 C 280.210938 -28.78125 260.71875 -18.75 236.53125 -11.25 C 212.34375 -3.75 183 0 148.5 0 Z M 108.5625 -57.9375 C 108.5625 -37.6875 110.4375 -24.46875 114.1875 -18.28125 C 117.9375 -12.09375 125.8125 -9 137.8125 -9 L 153.5625 -9 C 194.0625 -9 223.59375 -18.65625 242.15625 -37.96875 C 260.71875 -57.28125 270 -81.75 270 -111.375 C 270 -145.125 260.25 -172.78125 240.75 -194.34375 C 221.25 -215.90625 190.5 -226.6875 148.5 -226.6875 L 108.5625 -226.6875 Z M 108.5625 -235.6875 L 158.625 -235.6875 C 179.25 -235.6875 195.375 -242.625 207 -256.5 C 218.625 -270.375 224.4375 -287.054688 224.4375 -306.546875 C 224.4375 -331.296875 216.1875 -350.515625 199.6875 -364.203125 C 183.1875 -377.890625 160.5 -384.734375 131.625 -384.734375 L 108.5625 -384.734375 Z M 108.5625 -235.6875 "/></g></g></g></g></g></g><g clip-path="url(#f4876201b4)"><g transform="matrix(1, 0, 0, 1, 0, 0.000000000000042633)"><g clip-path="url(#47d1109f00)"><g fill="#ffffff" fill-opacity="1"><g transform="translate(1.058976, 447.974456)"><g><path d="M 26.4375 0 L 26.4375 -7.875 C 35.8125 -10.875 41.90625 -17.15625 44.71875 -26.71875 C 47.53125 -36.28125 48.9375 -51.1875 48.9375 -71.4375 L 48.9375 -322.296875 C 48.9375 -342.546875 47.53125 -357.453125 44.71875 -367.015625 C 41.90625 -376.578125 35.8125 -382.859375 26.4375 -385.859375 L 26.4375 -393.734375 L 131.0625 -393.734375 L 131.0625 -385.859375 C 121.6875 -382.859375 115.59375 -376.578125 112.78125 -367.015625 C 109.96875 -357.453125 108.5625 -342.546875 108.5625 -322.296875 L 108.5625 -213.75 L 304.296875 -213.75 L 304.296875 -322.296875 C 304.296875 -342.546875 302.890625 -357.453125 300.078125 -367.015625 C 297.265625 -376.578125 291.171875 -382.859375 281.796875 -385.859375 L 281.796875 -393.734375 L 386.421875 -393.734375 L 386.421875 -385.859375 C 377.046875 -382.859375 370.953125 -376.578125 368.140625 -367.015625 C 365.328125 -357.453125 363.921875 -342.546875 363.921875 -322.296875 L 363.921875 -71.4375 C 363.921875 -51.1875 365.328125 -36.28125 368.140625 -26.71875 C 370.953125 -17.15625 377.046875 -10.875 386.421875 -7.875 L 386.421875 0 L 281.796875 0 L 281.796875 -7.875 C 291.171875 -10.875 297.265625 -17.15625 300.078125 -26.71875 C 302.890625 -36.28125 304.296875 -51.1875 304.296875 -71.4375 L 304.296875 -203.625 L 108.5625 -203.625 L 108.5625 -71.4375 C 108.5625 -51.1875 109.96875 -36.28125 112.78125 -26.71875 C 115.59375 -17.15625 121.6875 -10.875 131.0625 -7.875 L 131.0625 0 Z M 26.4375 0 "/></g></g></g></g></g></g></g></g></svg>